<mxfile host="app.diagrams.net" agent="Mozilla/5.0 (Windows NT 10.0; Win64; x64) AppleWebKit/537.36 (KHTML, like Gecko) Chrome/131.0.0.0 Safari/537.36" version="25.0.1" pages="2">
  <diagram id="C5RBs43oDa-KdzZeNtuy" name="user_interaction">
    <mxGraphModel dx="1434" dy="780" grid="1" gridSize="10" guides="1" tooltips="1" connect="1" arrows="1" fold="1" page="1" pageScale="1" pageWidth="827" pageHeight="1169" math="0" shadow="0">
      <root>
        <mxCell id="WIyWlLk6GJQsqaUBKTNV-0" />
        <mxCell id="WIyWlLk6GJQsqaUBKTNV-1" parent="WIyWlLk6GJQsqaUBKTNV-0" />
        <mxCell id="WIyWlLk6GJQsqaUBKTNV-2" value="" style="rounded=0;html=1;jettySize=auto;orthogonalLoop=1;fontSize=11;endArrow=block;endFill=0;endSize=8;strokeWidth=1;shadow=0;labelBackgroundColor=none;edgeStyle=orthogonalEdgeStyle;fontColor=default;" parent="WIyWlLk6GJQsqaUBKTNV-1" edge="1">
          <mxGeometry relative="1" as="geometry">
            <mxPoint x="90" y="100" as="sourcePoint" />
            <mxPoint x="90" y="150" as="targetPoint" />
          </mxGeometry>
        </mxCell>
        <mxCell id="htxc8og7YpvdipFYyZDd-0" value="&lt;br&gt;User clicks alt/F12" style="html=1;strokeWidth=2;shape=manualInput;whiteSpace=wrap;rounded=1;size=26;arcSize=11;labelBackgroundColor=none;" vertex="1" parent="WIyWlLk6GJQsqaUBKTNV-1">
          <mxGeometry x="40" y="140" width="100" height="60" as="geometry" />
        </mxCell>
        <mxCell id="htxc8og7YpvdipFYyZDd-1" value="Interaction starts" style="strokeWidth=2;html=1;shape=mxgraph.flowchart.start_1;whiteSpace=wrap;labelBackgroundColor=none;fillColor=#d5e8d4;strokeColor=#82b366;" vertex="1" parent="WIyWlLk6GJQsqaUBKTNV-1">
          <mxGeometry x="40" y="40" width="100" height="60" as="geometry" />
        </mxCell>
        <mxCell id="htxc8og7YpvdipFYyZDd-17" style="edgeStyle=orthogonalEdgeStyle;rounded=0;orthogonalLoop=1;jettySize=auto;html=1;endArrow=block;endFill=0;endSize=8;labelBackgroundColor=none;fontColor=default;entryX=0.5;entryY=0.167;entryDx=0;entryDy=0;entryPerimeter=0;" edge="1" parent="WIyWlLk6GJQsqaUBKTNV-1" source="htxc8og7YpvdipFYyZDd-2" target="htxc8og7YpvdipFYyZDd-32">
          <mxGeometry relative="1" as="geometry">
            <mxPoint x="370" y="410" as="targetPoint" />
          </mxGeometry>
        </mxCell>
        <mxCell id="htxc8og7YpvdipFYyZDd-2" value="&lt;br&gt;&lt;div&gt;User clicks&amp;nbsp;&lt;div&gt;search bar&lt;/div&gt;&lt;/div&gt;" style="html=1;strokeWidth=2;shape=manualInput;whiteSpace=wrap;rounded=1;size=26;arcSize=11;labelBackgroundColor=none;" vertex="1" parent="WIyWlLk6GJQsqaUBKTNV-1">
          <mxGeometry x="180" y="240" width="100" height="60" as="geometry" />
        </mxCell>
        <mxCell id="htxc8og7YpvdipFYyZDd-5" style="edgeStyle=orthogonalEdgeStyle;rounded=0;orthogonalLoop=1;jettySize=auto;html=1;endArrow=block;endFill=0;endSize=8;labelBackgroundColor=none;fontColor=default;" edge="1" parent="WIyWlLk6GJQsqaUBKTNV-1" source="htxc8og7YpvdipFYyZDd-3">
          <mxGeometry relative="1" as="geometry">
            <mxPoint x="230" y="250" as="targetPoint" />
          </mxGeometry>
        </mxCell>
        <mxCell id="htxc8og7YpvdipFYyZDd-3" value="Search bar displays" style="strokeWidth=2;html=1;shape=mxgraph.flowchart.display;whiteSpace=wrap;labelBackgroundColor=none;" vertex="1" parent="WIyWlLk6GJQsqaUBKTNV-1">
          <mxGeometry x="180" y="140" width="100" height="60" as="geometry" />
        </mxCell>
        <mxCell id="htxc8og7YpvdipFYyZDd-4" value="&lt;font style=&quot;font-size: 20px;&quot;&gt;User Interaction Process - &#39;Search&#39;&lt;/font&gt;" style="text;strokeColor=none;align=center;fillColor=none;html=1;verticalAlign=middle;whiteSpace=wrap;rounded=0;labelBackgroundColor=none;" vertex="1" parent="WIyWlLk6GJQsqaUBKTNV-1">
          <mxGeometry x="340" y="40" width="200" height="40" as="geometry" />
        </mxCell>
        <mxCell id="htxc8og7YpvdipFYyZDd-23" style="edgeStyle=orthogonalEdgeStyle;shape=connector;rounded=0;orthogonalLoop=1;jettySize=auto;html=1;strokeColor=default;align=center;verticalAlign=middle;fontFamily=Helvetica;fontSize=11;fontColor=default;labelBackgroundColor=none;endArrow=block;endFill=0;endSize=8;" edge="1" parent="WIyWlLk6GJQsqaUBKTNV-1" source="htxc8og7YpvdipFYyZDd-6">
          <mxGeometry relative="1" as="geometry">
            <mxPoint x="230" y="450" as="targetPoint" />
          </mxGeometry>
        </mxCell>
        <mxCell id="htxc8og7YpvdipFYyZDd-34" style="edgeStyle=orthogonalEdgeStyle;shape=connector;rounded=0;orthogonalLoop=1;jettySize=auto;html=1;entryX=0;entryY=0.5;entryDx=0;entryDy=0;strokeColor=default;align=center;verticalAlign=middle;fontFamily=Helvetica;fontSize=11;fontColor=default;labelBackgroundColor=none;endArrow=block;endFill=0;endSize=8;" edge="1" parent="WIyWlLk6GJQsqaUBKTNV-1" source="htxc8og7YpvdipFYyZDd-6" target="htxc8og7YpvdipFYyZDd-32">
          <mxGeometry relative="1" as="geometry" />
        </mxCell>
        <mxCell id="htxc8og7YpvdipFYyZDd-6" value="&lt;br&gt;User inputs text" style="html=1;strokeWidth=2;shape=manualInput;whiteSpace=wrap;rounded=1;size=26;arcSize=11;labelBackgroundColor=none;" vertex="1" parent="WIyWlLk6GJQsqaUBKTNV-1">
          <mxGeometry x="180" y="340" width="100" height="60" as="geometry" />
        </mxCell>
        <mxCell id="htxc8og7YpvdipFYyZDd-8" style="edgeStyle=orthogonalEdgeStyle;rounded=0;orthogonalLoop=1;jettySize=auto;html=1;entryX=0.5;entryY=0.167;entryDx=0;entryDy=0;entryPerimeter=0;endArrow=block;endFill=0;endSize=8;labelBackgroundColor=none;fontColor=default;" edge="1" parent="WIyWlLk6GJQsqaUBKTNV-1" source="htxc8og7YpvdipFYyZDd-2" target="htxc8og7YpvdipFYyZDd-6">
          <mxGeometry relative="1" as="geometry" />
        </mxCell>
        <mxCell id="htxc8og7YpvdipFYyZDd-14" value="&lt;br&gt;&lt;div&gt;User clicks Esc&lt;/div&gt;" style="html=1;strokeWidth=2;shape=manualInput;whiteSpace=wrap;rounded=1;size=26;arcSize=11;labelBackgroundColor=none;" vertex="1" parent="WIyWlLk6GJQsqaUBKTNV-1">
          <mxGeometry x="460" y="540" width="100" height="60" as="geometry" />
        </mxCell>
        <mxCell id="htxc8og7YpvdipFYyZDd-39" style="edgeStyle=orthogonalEdgeStyle;shape=connector;rounded=0;orthogonalLoop=1;jettySize=auto;html=1;strokeColor=default;align=center;verticalAlign=middle;fontFamily=Helvetica;fontSize=11;fontColor=default;labelBackgroundColor=none;endArrow=block;endFill=0;endSize=8;" edge="1" parent="WIyWlLk6GJQsqaUBKTNV-1" source="htxc8og7YpvdipFYyZDd-15">
          <mxGeometry relative="1" as="geometry">
            <mxPoint x="600" y="470" as="targetPoint" />
          </mxGeometry>
        </mxCell>
        <mxCell id="htxc8og7YpvdipFYyZDd-15" value="Search bar hides" style="strokeWidth=2;html=1;shape=mxgraph.flowchart.display;whiteSpace=wrap;labelBackgroundColor=none;" vertex="1" parent="WIyWlLk6GJQsqaUBKTNV-1">
          <mxGeometry x="460" y="440" width="100" height="60" as="geometry" />
        </mxCell>
        <mxCell id="htxc8og7YpvdipFYyZDd-24" value="&lt;div&gt;&lt;br&gt;&lt;/div&gt;User clicks Enter" style="html=1;strokeWidth=2;shape=manualInput;whiteSpace=wrap;rounded=1;size=26;arcSize=11;labelBackgroundColor=none;" vertex="1" parent="WIyWlLk6GJQsqaUBKTNV-1">
          <mxGeometry x="180" y="440" width="100" height="60" as="geometry" />
        </mxCell>
        <mxCell id="htxc8og7YpvdipFYyZDd-25" value="Interaction Ends" style="strokeWidth=2;html=1;shape=mxgraph.flowchart.terminator;whiteSpace=wrap;fontFamily=Helvetica;fontSize=11;labelBackgroundColor=none;fillColor=#f8cecc;strokeColor=#b85450;" vertex="1" parent="WIyWlLk6GJQsqaUBKTNV-1">
          <mxGeometry x="460" y="640" width="100" height="60" as="geometry" />
        </mxCell>
        <mxCell id="htxc8og7YpvdipFYyZDd-27" value="&lt;div&gt;&lt;span style=&quot;background-color: initial;&quot;&gt;&lt;font&gt;Matched text highlighted on screen&lt;/font&gt;&lt;/span&gt;&lt;/div&gt;" style="strokeWidth=2;html=1;shape=mxgraph.flowchart.display;whiteSpace=wrap;labelBackgroundColor=none;" vertex="1" parent="WIyWlLk6GJQsqaUBKTNV-1">
          <mxGeometry x="320" y="440" width="100" height="60" as="geometry" />
        </mxCell>
        <mxCell id="htxc8og7YpvdipFYyZDd-28" style="edgeStyle=orthogonalEdgeStyle;shape=connector;rounded=0;orthogonalLoop=1;jettySize=auto;html=1;entryX=0;entryY=0.5;entryDx=0;entryDy=0;entryPerimeter=0;strokeColor=default;align=center;verticalAlign=middle;fontFamily=Helvetica;fontSize=11;fontColor=default;labelBackgroundColor=none;endArrow=block;endFill=0;endSize=8;" edge="1" parent="WIyWlLk6GJQsqaUBKTNV-1" source="htxc8og7YpvdipFYyZDd-24" target="htxc8og7YpvdipFYyZDd-27">
          <mxGeometry relative="1" as="geometry" />
        </mxCell>
        <mxCell id="htxc8og7YpvdipFYyZDd-31" style="edgeStyle=orthogonalEdgeStyle;shape=connector;rounded=0;orthogonalLoop=1;jettySize=auto;html=1;entryX=0;entryY=0.5;entryDx=0;entryDy=0;entryPerimeter=0;strokeColor=default;align=center;verticalAlign=middle;fontFamily=Helvetica;fontSize=11;fontColor=default;labelBackgroundColor=none;endArrow=block;endFill=0;endSize=8;" edge="1" parent="WIyWlLk6GJQsqaUBKTNV-1" source="htxc8og7YpvdipFYyZDd-27" target="htxc8og7YpvdipFYyZDd-15">
          <mxGeometry relative="1" as="geometry" />
        </mxCell>
        <mxCell id="htxc8og7YpvdipFYyZDd-32" value="&lt;br&gt;&lt;div&gt;User clicks Esc&lt;/div&gt;" style="html=1;strokeWidth=2;shape=manualInput;whiteSpace=wrap;rounded=1;size=26;arcSize=11;labelBackgroundColor=none;" vertex="1" parent="WIyWlLk6GJQsqaUBKTNV-1">
          <mxGeometry x="460" y="340" width="100" height="60" as="geometry" />
        </mxCell>
        <mxCell id="htxc8og7YpvdipFYyZDd-33" style="edgeStyle=orthogonalEdgeStyle;shape=connector;rounded=0;orthogonalLoop=1;jettySize=auto;html=1;entryX=0.5;entryY=0;entryDx=0;entryDy=0;entryPerimeter=0;strokeColor=default;align=center;verticalAlign=middle;fontFamily=Helvetica;fontSize=11;fontColor=default;labelBackgroundColor=none;endArrow=block;endFill=0;endSize=8;" edge="1" parent="WIyWlLk6GJQsqaUBKTNV-1" source="htxc8og7YpvdipFYyZDd-32" target="htxc8og7YpvdipFYyZDd-15">
          <mxGeometry relative="1" as="geometry" />
        </mxCell>
        <mxCell id="htxc8og7YpvdipFYyZDd-36" style="edgeStyle=orthogonalEdgeStyle;shape=connector;rounded=0;orthogonalLoop=1;jettySize=auto;html=1;strokeColor=default;align=center;verticalAlign=middle;fontFamily=Helvetica;fontSize=11;fontColor=default;labelBackgroundColor=none;endArrow=block;endFill=0;endSize=8;" edge="1" parent="WIyWlLk6GJQsqaUBKTNV-1" source="htxc8og7YpvdipFYyZDd-15">
          <mxGeometry relative="1" as="geometry">
            <mxPoint x="510" y="550" as="targetPoint" />
          </mxGeometry>
        </mxCell>
        <mxCell id="htxc8og7YpvdipFYyZDd-37" style="edgeStyle=orthogonalEdgeStyle;shape=connector;rounded=0;orthogonalLoop=1;jettySize=auto;html=1;entryX=0.5;entryY=0;entryDx=0;entryDy=0;entryPerimeter=0;strokeColor=default;align=center;verticalAlign=middle;fontFamily=Helvetica;fontSize=11;fontColor=default;labelBackgroundColor=none;endArrow=block;endFill=0;endSize=8;" edge="1" parent="WIyWlLk6GJQsqaUBKTNV-1" source="htxc8og7YpvdipFYyZDd-14" target="htxc8og7YpvdipFYyZDd-25">
          <mxGeometry relative="1" as="geometry" />
        </mxCell>
        <mxCell id="htxc8og7YpvdipFYyZDd-38" style="edgeStyle=orthogonalEdgeStyle;shape=connector;rounded=0;orthogonalLoop=1;jettySize=auto;html=1;entryX=0;entryY=0.5;entryDx=0;entryDy=0;entryPerimeter=0;strokeColor=default;align=center;verticalAlign=middle;fontFamily=Helvetica;fontSize=11;fontColor=default;labelBackgroundColor=none;endArrow=block;endFill=0;endSize=8;" edge="1" parent="WIyWlLk6GJQsqaUBKTNV-1" source="htxc8og7YpvdipFYyZDd-0" target="htxc8og7YpvdipFYyZDd-3">
          <mxGeometry relative="1" as="geometry" />
        </mxCell>
        <mxCell id="htxc8og7YpvdipFYyZDd-40" value="&lt;br&gt;&lt;div&gt;User performs other interaction&lt;/div&gt;" style="html=1;strokeWidth=2;shape=manualInput;whiteSpace=wrap;rounded=1;size=26;arcSize=11;labelBackgroundColor=none;" vertex="1" parent="WIyWlLk6GJQsqaUBKTNV-1">
          <mxGeometry x="600" y="440" width="100" height="60" as="geometry" />
        </mxCell>
        <mxCell id="htxc8og7YpvdipFYyZDd-47" style="edgeStyle=orthogonalEdgeStyle;shape=connector;rounded=0;orthogonalLoop=1;jettySize=auto;html=1;entryX=1;entryY=0.5;entryDx=0;entryDy=0;strokeColor=default;align=center;verticalAlign=middle;fontFamily=Helvetica;fontSize=11;fontColor=default;labelBackgroundColor=none;endArrow=block;endFill=0;endSize=8;exitX=0.5;exitY=0.2;exitDx=0;exitDy=0;exitPerimeter=0;" edge="1" parent="WIyWlLk6GJQsqaUBKTNV-1" source="htxc8og7YpvdipFYyZDd-40" target="htxc8og7YpvdipFYyZDd-40">
          <mxGeometry relative="1" as="geometry" />
        </mxCell>
      </root>
    </mxGraphModel>
  </diagram>
  <diagram id="5RqWWESDTWeDJPaqq1za" name="program">
    <mxGraphModel dx="1434" dy="780" grid="1" gridSize="10" guides="1" tooltips="1" connect="1" arrows="1" fold="1" page="1" pageScale="1" pageWidth="827" pageHeight="1169" math="0" shadow="0">
      <root>
        <mxCell id="0" />
        <mxCell id="1" parent="0" />
        <mxCell id="_YyN9C586fogZRWbR89V-1" value="" style="rounded=0;html=1;jettySize=auto;orthogonalLoop=1;fontSize=11;endArrow=block;endFill=0;endSize=8;strokeWidth=1;shadow=0;labelBackgroundColor=none;edgeStyle=orthogonalEdgeStyle;fontColor=default;" edge="1" parent="1">
          <mxGeometry relative="1" as="geometry">
            <mxPoint x="90" y="100" as="sourcePoint" />
            <mxPoint x="90" y="150" as="targetPoint" />
          </mxGeometry>
        </mxCell>
        <mxCell id="_YyN9C586fogZRWbR89V-3" value="Interaction starts" style="strokeWidth=2;html=1;shape=mxgraph.flowchart.start_1;whiteSpace=wrap;labelBackgroundColor=none;fillColor=#d5e8d4;strokeColor=#82b366;" vertex="1" parent="1">
          <mxGeometry x="40" y="40" width="100" height="60" as="geometry" />
        </mxCell>
        <mxCell id="_YyN9C586fogZRWbR89V-4" style="edgeStyle=orthogonalEdgeStyle;rounded=0;orthogonalLoop=1;jettySize=auto;html=1;endArrow=block;endFill=0;endSize=8;labelBackgroundColor=none;fontColor=default;entryX=0.5;entryY=0.167;entryDx=0;entryDy=0;entryPerimeter=0;" edge="1" parent="1" source="_YyN9C586fogZRWbR89V-5" target="_YyN9C586fogZRWbR89V-21">
          <mxGeometry relative="1" as="geometry">
            <mxPoint x="370" y="410" as="targetPoint" />
          </mxGeometry>
        </mxCell>
        <mxCell id="_YyN9C586fogZRWbR89V-5" value="&lt;br&gt;&lt;div&gt;User clicks&amp;nbsp;&lt;div&gt;search bar&lt;/div&gt;&lt;/div&gt;" style="html=1;strokeWidth=2;shape=manualInput;whiteSpace=wrap;rounded=1;size=26;arcSize=11;labelBackgroundColor=none;" vertex="1" parent="1">
          <mxGeometry x="180" y="240" width="100" height="60" as="geometry" />
        </mxCell>
        <mxCell id="_YyN9C586fogZRWbR89V-6" style="edgeStyle=orthogonalEdgeStyle;rounded=0;orthogonalLoop=1;jettySize=auto;html=1;endArrow=block;endFill=0;endSize=8;labelBackgroundColor=none;fontColor=default;" edge="1" parent="1" source="_YyN9C586fogZRWbR89V-7">
          <mxGeometry relative="1" as="geometry">
            <mxPoint x="230" y="250" as="targetPoint" />
          </mxGeometry>
        </mxCell>
        <mxCell id="_YyN9C586fogZRWbR89V-7" value="Search bar displays" style="strokeWidth=2;html=1;shape=mxgraph.flowchart.display;whiteSpace=wrap;labelBackgroundColor=none;" vertex="1" parent="1">
          <mxGeometry x="180" y="140" width="100" height="60" as="geometry" />
        </mxCell>
        <mxCell id="_YyN9C586fogZRWbR89V-8" value="&lt;font style=&quot;font-size: 20px;&quot;&gt;Program&amp;nbsp;&lt;/font&gt;&lt;span style=&quot;font-size: 20px; background-color: initial;&quot;&gt;Process - &#39;Search&#39;&lt;/span&gt;" style="text;strokeColor=none;align=center;fillColor=none;html=1;verticalAlign=middle;whiteSpace=wrap;rounded=0;labelBackgroundColor=none;" vertex="1" parent="1">
          <mxGeometry x="340" y="40" width="200" height="40" as="geometry" />
        </mxCell>
        <mxCell id="_YyN9C586fogZRWbR89V-9" style="edgeStyle=orthogonalEdgeStyle;shape=connector;rounded=0;orthogonalLoop=1;jettySize=auto;html=1;strokeColor=default;align=center;verticalAlign=middle;fontFamily=Helvetica;fontSize=11;fontColor=default;labelBackgroundColor=none;endArrow=block;endFill=0;endSize=8;" edge="1" parent="1" source="_YyN9C586fogZRWbR89V-11">
          <mxGeometry relative="1" as="geometry">
            <mxPoint x="230" y="450" as="targetPoint" />
          </mxGeometry>
        </mxCell>
        <mxCell id="_YyN9C586fogZRWbR89V-10" style="edgeStyle=orthogonalEdgeStyle;shape=connector;rounded=0;orthogonalLoop=1;jettySize=auto;html=1;entryX=0;entryY=0.5;entryDx=0;entryDy=0;strokeColor=default;align=center;verticalAlign=middle;fontFamily=Helvetica;fontSize=11;fontColor=default;labelBackgroundColor=none;endArrow=block;endFill=0;endSize=8;" edge="1" parent="1" source="_YyN9C586fogZRWbR89V-11" target="_YyN9C586fogZRWbR89V-21">
          <mxGeometry relative="1" as="geometry" />
        </mxCell>
        <mxCell id="_YyN9C586fogZRWbR89V-11" value="&lt;br&gt;User inputs text" style="html=1;strokeWidth=2;shape=manualInput;whiteSpace=wrap;rounded=1;size=26;arcSize=11;labelBackgroundColor=none;" vertex="1" parent="1">
          <mxGeometry x="180" y="340" width="100" height="60" as="geometry" />
        </mxCell>
        <mxCell id="_YyN9C586fogZRWbR89V-12" style="edgeStyle=orthogonalEdgeStyle;rounded=0;orthogonalLoop=1;jettySize=auto;html=1;entryX=0.5;entryY=0.167;entryDx=0;entryDy=0;entryPerimeter=0;endArrow=block;endFill=0;endSize=8;labelBackgroundColor=none;fontColor=default;" edge="1" parent="1" source="_YyN9C586fogZRWbR89V-5" target="_YyN9C586fogZRWbR89V-11">
          <mxGeometry relative="1" as="geometry" />
        </mxCell>
        <mxCell id="_YyN9C586fogZRWbR89V-13" value="&lt;br&gt;&lt;div&gt;User clicks Esc&lt;/div&gt;" style="html=1;strokeWidth=2;shape=manualInput;whiteSpace=wrap;rounded=1;size=26;arcSize=11;labelBackgroundColor=none;" vertex="1" parent="1">
          <mxGeometry x="460" y="540" width="100" height="60" as="geometry" />
        </mxCell>
        <mxCell id="_YyN9C586fogZRWbR89V-14" style="edgeStyle=orthogonalEdgeStyle;shape=connector;rounded=0;orthogonalLoop=1;jettySize=auto;html=1;strokeColor=default;align=center;verticalAlign=middle;fontFamily=Helvetica;fontSize=11;fontColor=default;labelBackgroundColor=none;endArrow=block;endFill=0;endSize=8;" edge="1" parent="1" source="_YyN9C586fogZRWbR89V-15">
          <mxGeometry relative="1" as="geometry">
            <mxPoint x="600" y="470" as="targetPoint" />
          </mxGeometry>
        </mxCell>
        <mxCell id="_YyN9C586fogZRWbR89V-15" value="Search bar hides" style="strokeWidth=2;html=1;shape=mxgraph.flowchart.display;whiteSpace=wrap;labelBackgroundColor=none;" vertex="1" parent="1">
          <mxGeometry x="460" y="440" width="100" height="60" as="geometry" />
        </mxCell>
        <mxCell id="_YyN9C586fogZRWbR89V-16" value="&lt;div&gt;&lt;br&gt;&lt;/div&gt;User clicks Enter" style="html=1;strokeWidth=2;shape=manualInput;whiteSpace=wrap;rounded=1;size=26;arcSize=11;labelBackgroundColor=none;" vertex="1" parent="1">
          <mxGeometry x="180" y="440" width="100" height="60" as="geometry" />
        </mxCell>
        <mxCell id="_YyN9C586fogZRWbR89V-17" value="Interaction Ends" style="strokeWidth=2;html=1;shape=mxgraph.flowchart.terminator;whiteSpace=wrap;fontFamily=Helvetica;fontSize=11;labelBackgroundColor=none;fillColor=#f8cecc;strokeColor=#b85450;" vertex="1" parent="1">
          <mxGeometry x="460" y="640" width="100" height="60" as="geometry" />
        </mxCell>
        <mxCell id="_YyN9C586fogZRWbR89V-18" value="&lt;div&gt;&lt;span style=&quot;background-color: initial;&quot;&gt;&lt;font&gt;Matched text highlighted on screen&lt;/font&gt;&lt;/span&gt;&lt;/div&gt;" style="strokeWidth=2;html=1;shape=mxgraph.flowchart.display;whiteSpace=wrap;labelBackgroundColor=none;" vertex="1" parent="1">
          <mxGeometry x="320" y="440" width="100" height="60" as="geometry" />
        </mxCell>
        <mxCell id="_YyN9C586fogZRWbR89V-19" style="edgeStyle=orthogonalEdgeStyle;shape=connector;rounded=0;orthogonalLoop=1;jettySize=auto;html=1;entryX=0;entryY=0.5;entryDx=0;entryDy=0;entryPerimeter=0;strokeColor=default;align=center;verticalAlign=middle;fontFamily=Helvetica;fontSize=11;fontColor=default;labelBackgroundColor=none;endArrow=block;endFill=0;endSize=8;" edge="1" parent="1" source="_YyN9C586fogZRWbR89V-16" target="_YyN9C586fogZRWbR89V-18">
          <mxGeometry relative="1" as="geometry" />
        </mxCell>
        <mxCell id="_YyN9C586fogZRWbR89V-20" style="edgeStyle=orthogonalEdgeStyle;shape=connector;rounded=0;orthogonalLoop=1;jettySize=auto;html=1;entryX=0;entryY=0.5;entryDx=0;entryDy=0;entryPerimeter=0;strokeColor=default;align=center;verticalAlign=middle;fontFamily=Helvetica;fontSize=11;fontColor=default;labelBackgroundColor=none;endArrow=block;endFill=0;endSize=8;" edge="1" parent="1" source="_YyN9C586fogZRWbR89V-18" target="_YyN9C586fogZRWbR89V-15">
          <mxGeometry relative="1" as="geometry" />
        </mxCell>
        <mxCell id="_YyN9C586fogZRWbR89V-21" value="&lt;br&gt;&lt;div&gt;User clicks Esc&lt;/div&gt;" style="html=1;strokeWidth=2;shape=manualInput;whiteSpace=wrap;rounded=1;size=26;arcSize=11;labelBackgroundColor=none;" vertex="1" parent="1">
          <mxGeometry x="460" y="340" width="100" height="60" as="geometry" />
        </mxCell>
        <mxCell id="_YyN9C586fogZRWbR89V-22" style="edgeStyle=orthogonalEdgeStyle;shape=connector;rounded=0;orthogonalLoop=1;jettySize=auto;html=1;entryX=0.5;entryY=0;entryDx=0;entryDy=0;entryPerimeter=0;strokeColor=default;align=center;verticalAlign=middle;fontFamily=Helvetica;fontSize=11;fontColor=default;labelBackgroundColor=none;endArrow=block;endFill=0;endSize=8;" edge="1" parent="1" source="_YyN9C586fogZRWbR89V-21" target="_YyN9C586fogZRWbR89V-15">
          <mxGeometry relative="1" as="geometry" />
        </mxCell>
        <mxCell id="_YyN9C586fogZRWbR89V-23" style="edgeStyle=orthogonalEdgeStyle;shape=connector;rounded=0;orthogonalLoop=1;jettySize=auto;html=1;strokeColor=default;align=center;verticalAlign=middle;fontFamily=Helvetica;fontSize=11;fontColor=default;labelBackgroundColor=none;endArrow=block;endFill=0;endSize=8;" edge="1" parent="1" source="_YyN9C586fogZRWbR89V-15">
          <mxGeometry relative="1" as="geometry">
            <mxPoint x="510" y="550" as="targetPoint" />
          </mxGeometry>
        </mxCell>
        <mxCell id="_YyN9C586fogZRWbR89V-24" style="edgeStyle=orthogonalEdgeStyle;shape=connector;rounded=0;orthogonalLoop=1;jettySize=auto;html=1;entryX=0.5;entryY=0;entryDx=0;entryDy=0;entryPerimeter=0;strokeColor=default;align=center;verticalAlign=middle;fontFamily=Helvetica;fontSize=11;fontColor=default;labelBackgroundColor=none;endArrow=block;endFill=0;endSize=8;" edge="1" parent="1" source="_YyN9C586fogZRWbR89V-13" target="_YyN9C586fogZRWbR89V-17">
          <mxGeometry relative="1" as="geometry" />
        </mxCell>
        <mxCell id="_YyN9C586fogZRWbR89V-25" style="edgeStyle=orthogonalEdgeStyle;shape=connector;rounded=0;orthogonalLoop=1;jettySize=auto;html=1;entryX=0;entryY=0.5;entryDx=0;entryDy=0;entryPerimeter=0;strokeColor=default;align=center;verticalAlign=middle;fontFamily=Helvetica;fontSize=11;fontColor=default;labelBackgroundColor=none;endArrow=block;endFill=0;endSize=8;" edge="1" parent="1" target="_YyN9C586fogZRWbR89V-7">
          <mxGeometry relative="1" as="geometry">
            <mxPoint x="140" y="170" as="sourcePoint" />
          </mxGeometry>
        </mxCell>
        <mxCell id="_YyN9C586fogZRWbR89V-26" value="&lt;br&gt;&lt;div&gt;User performs other interaction&lt;/div&gt;" style="html=1;strokeWidth=2;shape=manualInput;whiteSpace=wrap;rounded=1;size=26;arcSize=11;labelBackgroundColor=none;" vertex="1" parent="1">
          <mxGeometry x="600" y="440" width="100" height="60" as="geometry" />
        </mxCell>
        <mxCell id="_YyN9C586fogZRWbR89V-27" style="edgeStyle=orthogonalEdgeStyle;shape=connector;rounded=0;orthogonalLoop=1;jettySize=auto;html=1;entryX=1;entryY=0.5;entryDx=0;entryDy=0;strokeColor=default;align=center;verticalAlign=middle;fontFamily=Helvetica;fontSize=11;fontColor=default;labelBackgroundColor=none;endArrow=block;endFill=0;endSize=8;exitX=0.5;exitY=0.2;exitDx=0;exitDy=0;exitPerimeter=0;" edge="1" parent="1" source="_YyN9C586fogZRWbR89V-26" target="_YyN9C586fogZRWbR89V-26">
          <mxGeometry relative="1" as="geometry" />
        </mxCell>
      </root>
    </mxGraphModel>
  </diagram>
</mxfile>
